<mxfile host="app.diagrams.net" modified="2023-05-24T17:30:18.699Z" agent="Mozilla/5.0 (Windows NT 10.0; Win64; x64) AppleWebKit/537.36 (KHTML, like Gecko) Chrome/113.0.0.0 Safari/537.36" etag="MyXvIXIzNaLMichlyCs9" version="21.3.3" type="device">
  <diagram name="PÃ¡gina-1" id="EXGiLELG3XVYFZudtJBo">
    <mxGraphModel dx="2185" dy="-566" grid="1" gridSize="10" guides="1" tooltips="1" connect="1" arrows="1" fold="1" page="1" pageScale="1" pageWidth="827" pageHeight="1169" math="0" shadow="0">
      <root>
        <mxCell id="0" />
        <mxCell id="1" parent="0" />
        <mxCell id="OFJaODHsTfSckM5PXvSi-1" value="&amp;lt;&amp;lt;Entity&amp;gt;&amp;gt;&lt;br&gt;&amp;lt;&amp;lt;Root&amp;gt;&amp;gt;&lt;br style=&quot;border-color: var(--border-color);&quot;&gt;Student " style="rounded=0;whiteSpace=wrap;html=1;" vertex="1" parent="1">
          <mxGeometry x="60" y="2030" width="120" height="60" as="geometry" />
        </mxCell>
        <mxCell id="OFJaODHsTfSckM5PXvSi-3" value="&amp;lt;&amp;lt;Entity&amp;gt;&amp;gt;&lt;br&gt;&amp;lt;&amp;lt;Root&amp;gt;&amp;gt;&lt;br style=&quot;border-color: var(--border-color);&quot;&gt;Exam " style="rounded=0;whiteSpace=wrap;html=1;" vertex="1" parent="1">
          <mxGeometry x="367.56000000000006" y="2156" width="120" height="60" as="geometry" />
        </mxCell>
        <mxCell id="OFJaODHsTfSckM5PXvSi-6" value="&amp;lt;&amp;lt;Entity&amp;gt;&amp;gt;&lt;br&gt;&amp;lt;&amp;lt;Root&amp;gt;&amp;gt;&lt;br style=&quot;border-color: var(--border-color);&quot;&gt;Exam Resolution" style="rounded=0;whiteSpace=wrap;html=1;" vertex="1" parent="1">
          <mxGeometry x="-121.42" y="2254" width="120" height="60" as="geometry" />
        </mxCell>
        <mxCell id="OFJaODHsTfSckM5PXvSi-8" value="&amp;lt;&amp;lt;Value Object&amp;gt;&amp;gt;&lt;br&gt;Grade " style="rounded=0;whiteSpace=wrap;html=1;" vertex="1" parent="1">
          <mxGeometry x="-101.42" y="2357.61" width="120" height="60" as="geometry" />
        </mxCell>
        <mxCell id="OFJaODHsTfSckM5PXvSi-10" value="&amp;lt;&amp;lt;Value Object&amp;gt;&amp;gt;&lt;br&gt;Date Interval " style="rounded=0;whiteSpace=wrap;html=1;" vertex="1" parent="1">
          <mxGeometry x="393.8399999999999" y="2278.5" width="110" height="53" as="geometry" />
        </mxCell>
        <mxCell id="OFJaODHsTfSckM5PXvSi-11" value="&amp;lt;&amp;lt;Value Object&amp;gt;&amp;gt;&lt;br&gt;Date of Birth" style="rounded=0;whiteSpace=wrap;html=1;" vertex="1" parent="1">
          <mxGeometry x="227.56" y="2050" width="120" height="60" as="geometry" />
        </mxCell>
        <mxCell id="OFJaODHsTfSckM5PXvSi-12" value="&amp;lt;&amp;lt;Value Object&amp;gt;&amp;gt;&lt;br&gt;Tax Payer Number" style="rounded=0;whiteSpace=wrap;html=1;" vertex="1" parent="1">
          <mxGeometry x="240" y="1950" width="120" height="60" as="geometry" />
        </mxCell>
        <mxCell id="OFJaODHsTfSckM5PXvSi-13" value="&amp;lt;&amp;lt;Value Object&amp;gt;&amp;gt;&lt;br&gt;Mechanographic Number" style="rounded=0;whiteSpace=wrap;html=1;" vertex="1" parent="1">
          <mxGeometry x="60.00000000000001" y="1920" width="120" height="60" as="geometry" />
        </mxCell>
        <mxCell id="OFJaODHsTfSckM5PXvSi-15" value="&amp;lt;&amp;lt;Value Object&amp;gt;&amp;gt;&lt;br&gt;Exam Specification" style="rounded=0;whiteSpace=wrap;html=1;" vertex="1" parent="1">
          <mxGeometry x="257.56" y="2275.85" width="110" height="53" as="geometry" />
        </mxCell>
        <mxCell id="OFJaODHsTfSckM5PXvSi-27" value="" style="endArrow=diamondThin;endFill=1;endSize=24;html=1;rounded=0;exitX=0.5;exitY=0;exitDx=0;exitDy=0;entryX=0.75;entryY=1;entryDx=0;entryDy=0;" edge="1" parent="1" source="OFJaODHsTfSckM5PXvSi-10" target="OFJaODHsTfSckM5PXvSi-3">
          <mxGeometry width="160" relative="1" as="geometry">
            <mxPoint x="1296.19" y="2150.85" as="sourcePoint" />
            <mxPoint x="1057.19" y="2170.85" as="targetPoint" />
          </mxGeometry>
        </mxCell>
        <mxCell id="OFJaODHsTfSckM5PXvSi-28" value="" style="endArrow=diamondThin;endFill=1;endSize=24;html=1;rounded=0;exitX=0.5;exitY=0;exitDx=0;exitDy=0;entryX=0;entryY=1;entryDx=0;entryDy=0;" edge="1" parent="1" source="OFJaODHsTfSckM5PXvSi-15" target="OFJaODHsTfSckM5PXvSi-3">
          <mxGeometry width="160" relative="1" as="geometry">
            <mxPoint x="577.19" y="2250.85" as="sourcePoint" />
            <mxPoint x="527.19" y="2180.85" as="targetPoint" />
          </mxGeometry>
        </mxCell>
        <mxCell id="OFJaODHsTfSckM5PXvSi-29" value="validates" style="endArrow=classic;html=1;rounded=0;exitX=0;exitY=0.5;exitDx=0;exitDy=0;entryX=1;entryY=0.5;entryDx=0;entryDy=0;" edge="1" parent="1" source="OFJaODHsTfSckM5PXvSi-3" target="OFJaODHsTfSckM5PXvSi-6">
          <mxGeometry x="0.0435" y="13" width="50" height="50" relative="1" as="geometry">
            <mxPoint x="847.19" y="2007" as="sourcePoint" />
            <mxPoint x="597.19" y="2167" as="targetPoint" />
            <mxPoint as="offset" />
          </mxGeometry>
        </mxCell>
        <mxCell id="OFJaODHsTfSckM5PXvSi-30" value="" style="endArrow=diamondThin;endFill=1;endSize=24;html=1;rounded=0;exitX=0.5;exitY=0;exitDx=0;exitDy=0;entryX=0.5;entryY=1;entryDx=0;entryDy=0;" edge="1" parent="1" source="OFJaODHsTfSckM5PXvSi-8" target="OFJaODHsTfSckM5PXvSi-6">
          <mxGeometry width="160" relative="1" as="geometry">
            <mxPoint x="218.57999999999998" y="2394" as="sourcePoint" />
            <mxPoint x="268.58" y="2324" as="targetPoint" />
          </mxGeometry>
        </mxCell>
        <mxCell id="OFJaODHsTfSckM5PXvSi-31" value="has" style="endArrow=classic;html=1;rounded=0;exitX=0.5;exitY=1;exitDx=0;exitDy=0;entryX=0.5;entryY=0;entryDx=0;entryDy=0;" edge="1" parent="1" source="OFJaODHsTfSckM5PXvSi-1" target="OFJaODHsTfSckM5PXvSi-6">
          <mxGeometry x="0.081" y="16" width="50" height="50" relative="1" as="geometry">
            <mxPoint x="537.19" y="2197" as="sourcePoint" />
            <mxPoint x="307.19" y="2197" as="targetPoint" />
            <mxPoint x="-1" as="offset" />
          </mxGeometry>
        </mxCell>
        <mxCell id="OFJaODHsTfSckM5PXvSi-33" value="" style="endArrow=diamondThin;endFill=1;endSize=24;html=1;rounded=0;exitX=0;exitY=0.5;exitDx=0;exitDy=0;entryX=1;entryY=0;entryDx=0;entryDy=0;" edge="1" parent="1" source="OFJaODHsTfSckM5PXvSi-12" target="OFJaODHsTfSckM5PXvSi-1">
          <mxGeometry width="160" relative="1" as="geometry">
            <mxPoint x="337.19" y="1773" as="sourcePoint" />
            <mxPoint x="427.19" y="1685" as="targetPoint" />
          </mxGeometry>
        </mxCell>
        <mxCell id="OFJaODHsTfSckM5PXvSi-34" value="" style="endArrow=diamondThin;endFill=1;endSize=24;html=1;rounded=0;exitX=0;exitY=0.5;exitDx=0;exitDy=0;entryX=1;entryY=0.5;entryDx=0;entryDy=0;" edge="1" parent="1" source="OFJaODHsTfSckM5PXvSi-11" target="OFJaODHsTfSckM5PXvSi-1">
          <mxGeometry width="160" relative="1" as="geometry">
            <mxPoint x="347.19" y="1783" as="sourcePoint" />
            <mxPoint x="437.19" y="1695" as="targetPoint" />
          </mxGeometry>
        </mxCell>
        <mxCell id="OFJaODHsTfSckM5PXvSi-35" value="" style="endArrow=diamondThin;endFill=1;endSize=24;html=1;rounded=0;exitX=0.5;exitY=1;exitDx=0;exitDy=0;entryX=0.5;entryY=0;entryDx=0;entryDy=0;" edge="1" parent="1" source="OFJaODHsTfSckM5PXvSi-13" target="OFJaODHsTfSckM5PXvSi-1">
          <mxGeometry width="160" relative="1" as="geometry">
            <mxPoint x="217.19" y="1880" as="sourcePoint" />
            <mxPoint x="-12.810000000000002" y="1900" as="targetPoint" />
          </mxGeometry>
        </mxCell>
        <mxCell id="OFJaODHsTfSckM5PXvSi-39" value="" style="shape=stencil(lZzZkhy3EUW/Zl4R2JdnWf4PRYgyGaZFBUV5+XsnPEZ110XVafFNGmZWoYDMvDcX9Fv64fePP/324S363799/fL3D//69PO3j2/pL28xfvr144evn77Zf72lH9/SD798+frhb1+//PHrz+///9tPU3L+1z++/HM+4d/verm7WqdW9P95/0t0vv/vD399l//86ddn+ebiWT64kUG+uBJFvjeQz64UlU8gn1zxIt8GyEeX2/c8P7ik6xkR5L0LXfcTvjf19biHfAog3/R7o6se5Isber7//8O1fHbp/PzkMj0/6vkm3J/kXT3vZ3YZ7C12187yxfkC8tX1LPIV9tNeL/tTXYDzss8LUeQbfK+ZSzo/3xwI/CUM14LINziv0Ndyl3xfB3gtfyz3IU/+GIpLZ3sertD68wofh794l8DBQlz+eigE9AD755LOCnH5xLWCXzt+KJiNwpLMJc9HYJtQ4Aza8sBDvrkEe1pdlC8eLoENHRZ/uHBYQezax9bXHfLJddiguIWIijYaXTjv57QhsollMUeIsPVDjA4unNdjQSnCefmFQId8cx7l+9lE01gn/ufkDUToe209Il8QY4K6cO64nrAi5hHiDGPAfgzhzvZWiosUs1yWENrxvJLaQ32B8c6f/auW5RF39i8h2kAB7HnzrxYRM8x/z/7SbD2AScP58/e2juu3AJTPL+gBDdRCnIBAT+jxFgHFRHtBWjAjoMBGcxn2yOK6Kox1LHfA0c8fPfyCkjtkqmdkGoGX1BRaR8S4a1gphjTMdOngzM6aKhDbtUAurjny4jvXrmbYdMaOURC/Z3CpqkBg9uDDh0J1hRhRVOMbDU/a/L9VVSjEocyh5aM7v6EqyTQFgvxJgroqdKK9XjF8DBeIhyflOVMBTMOIeI+q4OkNfYH20zcQ1bRUZRRVICZlsBTFRZvrpGDJYlaFCNtajuTnyfgqBAFDJsEeU/CEDbYkeUNZGeQ1OGyx1RQoGNe8jPnJp4kC16YplClQDliH5iwWZih6G56FoAqBGGpWiLZQ2eAb2pY2zthKS2oLkp+idwdrbWNz0YAseGKmvMEjre1RSwnjiLbXClnfYBhXKFEoKzc+FDovac++Gqbj9jyfVIGihq1YjK8XfIPticRW24ZG7Ce4egaUSU7oDWZq8g3MV82Y29lau+c3ZDW+xqFyxoizT7eKlN6iUDrvkrlUh7hkCpJEtoOjXSsY/5I3eAzGpiDAXg+6cq3QXTjvUq180l0JlsVCSmQmKotCRL40tuqOhedAB9eV6JaBnO8BsodCWzzzVmHLlgb49MT9s3mXvDb6VkGWFF2kk94SjuIRdsdWVMycoYyN6Ob6SqGevyFnrBmYgpi3JdGU1E9rlSza8xua0h9jUJFMY4OsVLHWaQoCWcmYAPu0P390iogPkx2dtzUFpD+mEM7WatkpZYoW+YSsW/qL5l1W+e6pOpTJWvNi2odC4XCfXZJ6UloQc4cPwoxnyYIBRbKsR83lDrKKlAAHB7KggWzmjmTeXl3U0lniGqYgtmQJM7H7mZ/LkgrS0ElFpC6ZEBSNzUhKE+IqpdzxJS3dBgT2fllNpo/ealcDM3wjFlUKJ5j2tQ1/GuJV2yJAxahnvFuiXsENakl9J2P7qwVle3m98C41kXDBrmkURA4sYQyuVRk0EwYjIFu7ssL+GP8QE+VIUbdab8T9sfSzS6BYdbJr+artL24/GpUQyAlIbGfCre1Qan/lrWDFpXmjBdJbOPpb1/J5me9DPkJ2bqQg6PMDyXvNjwJWklLT8/XcrszaW/B4XunInZ7kqX2a1R48wkbK2kvxGHFT1vP1WPyb8k3kiV7P9QSRp/Od3+tFPrzYzyjyVMo3+a7rxyJbUfvxy4Hu5IPuJ66nLLh6+l6yt62i4BEv0lYv8+iPV/JUSE1b+9dj9pSOzsmftOeihamX/iIc5aU/dj1fSqqnferzqf2etuKgX/XIW3k9X6pWXvkj4deU1/VTHjfXU0WeiPHcn83+WV7w12MuMM93e/4Le/gu+S1J9IjvE1/0+VSknPi1nRfh70X8pPg88fd7/DEPZdx+JSq3/EH3h6pWxk+yPn+Q/FYA5fy27LMYGA9r0HJPWAHvjh8O5SfUn6ibPfP4m/Hbqvw2Ev/sWmeMPHritTQUV4C84//SakjI91rSeJg5P9oKqy/ykab8sGBFZXYNdFyL8KsHzfwby6etBYD8uW94MRAvLGUOW0JLBmRJuc5PRuwz9r55WMK+ex+bSWfklMMrps5eP3cMJIkMnDWPuE1U9TWGeVfgSTLVaYGPSkhbYWEGOqoIbcA3M0OqwZat5vSiTVK0MRkzdtDGZksvigtjm7CYw4Wk0LbJs4Hll9nEOJ9D8gtw7xR0FitiAB5dh/keFOlOQSJSqgjhs8VwNu9ZR+Z6vuzSHAKmkx46oPSgDXcKwuqMN1BZyxSkUZ95pM8UpJk0OwZ0cEOBubwozw9lLrPrgWObXmPxbKzQyQ0F88KzMaag3aSG5aSxlcPK4MrzUJebDS6y76EJWk3IaKcxnc3VOApND87m0NkhjKRg+O5ao6j9lYIkgc1zD7rpthrvoDKOKYTzkmbhlGNlkpnAFxBUNFEz6kFjInMo5HzS/UX/NqlTz+I1KUT9BmMreNJBm0O9YDXWqIBU9/oLetXVvHvDyRX75yhjhB2BupdtsnHgVGDfMpJXUx9RI9ngnKcH5eiDi6ZmOTqjxAMQZptjUyikULcxwoR1r5b1WstgdtLiNtSUcACibf2q2eeDb6jtYnaScgeLc9JzG2zedRuEfnRDb6v78oaKk8GGNzrDWrm+H5XOPOZArhP6reEwZyd5yE+ixoMR3ZUwZABiEhz46LTl6KaARebNpycQUxUv6RjhEzm41vBbX+OFxmz81W1RpFAVgx407Vphq+W92Ni4z5jy0T3upj0bx4tp4m3Wl5LFuHt1XWnLNYsbm4FXtFfL9KTDMfh2gOWSOj2ZsZM+k89tDJzuE4SqXGBEzMzCPusbViS5U9DJdI/zmSFv0D5wdiWkTaHh8FfYwsAcJKSD22zJ6AnOo23cIeBNsa5Et7E3VJ0SaQXtomgpyjCP4CSvoa1nWszXZIRGF6xNRmXRNaIzB010C1OroK5c+OrBNiJf+KqwV8YwrzWBE3gdT5zXpgCdt/Tw5bUskZ/XvvB7/VY4oNq216w+ZazUbaMnKWCRK+jzY+e7JXpTNXLkTTqWaH8h0plXgeCQD/i9+01wtoftJq/FYZqt2G7CWlSl3vLY1sMU2AKcLiigQYSoQGOPoOmNkLZ7LthNnJeytFqNFw2rzvJ1LFRNaJWQi9X5MLR73fiydthu9qHFmUkL+S3Y7YjbdEVBcr3fM8oI27Z9WaZgETHSHiKw3JS2m7ZcFklJITjyReGj2XIYKNbL0lZ2CXh5Px0A9JDHaY9xMW1DPy4RFII97meOel4eu2vzxyW26Rn6sYisN0k9+kve0kW/6rbX8vWim0u5X9unSSilyduVM4+UL2+lRG5m5aGQFJDRmHxUe6NuscnLNGTAwfo5/abd4sTrl9oS2//V819065N2o6k+MfdH5alylYfGE55WnOcrlGO1m2/tJ6k8red7f3zmpbz9x+OXbn759Pnz+w/lPP+7/jKO/en9V3XSj/8F);lineShape=1;" vertex="1" parent="1">
          <mxGeometry x="-270" y="2171" width="317.19" height="320" as="geometry" />
        </mxCell>
        <mxCell id="OFJaODHsTfSckM5PXvSi-49" value="1..*" style="text;html=1;strokeColor=none;fillColor=none;align=center;verticalAlign=middle;whiteSpace=wrap;rounded=0;fontSize=10;" vertex="1" parent="1">
          <mxGeometry x="-50.00000000000001" y="2238" width="20" height="16" as="geometry" />
        </mxCell>
        <mxCell id="OFJaODHsTfSckM5PXvSi-53" value="1..*" style="text;html=1;strokeColor=none;fillColor=none;align=center;verticalAlign=middle;whiteSpace=wrap;rounded=0;fontSize=10;" vertex="1" parent="1">
          <mxGeometry x="-1.4200000000000017" y="2297" width="20" height="16" as="geometry" />
        </mxCell>
        <mxCell id="OFJaODHsTfSckM5PXvSi-54" value="1" style="text;html=1;strokeColor=none;fillColor=none;align=center;verticalAlign=middle;whiteSpace=wrap;rounded=0;fontSize=10;" vertex="1" parent="1">
          <mxGeometry x="347.56" y="2171" width="20" height="16" as="geometry" />
        </mxCell>
        <mxCell id="OFJaODHsTfSckM5PXvSi-56" value="&amp;lt;&amp;lt;Value Object&amp;gt;&amp;gt;&lt;br&gt;Exam ID&amp;nbsp;" style="rounded=0;whiteSpace=wrap;html=1;" vertex="1" parent="1">
          <mxGeometry x="567.19" y="2163" width="110" height="53" as="geometry" />
        </mxCell>
        <mxCell id="OFJaODHsTfSckM5PXvSi-57" value="&amp;lt;&amp;lt;Value Object&amp;gt;&amp;gt;&lt;br&gt;Exam Resolution ID" style="rounded=0;whiteSpace=wrap;html=1;" vertex="1" parent="1">
          <mxGeometry x="-250.00000000000003" y="2301" width="120" height="60" as="geometry" />
        </mxCell>
        <mxCell id="OFJaODHsTfSckM5PXvSi-58" value="" style="endArrow=diamondThin;endFill=1;endSize=24;html=1;rounded=0;exitX=0.5;exitY=0;exitDx=0;exitDy=0;entryX=0;entryY=0.25;entryDx=0;entryDy=0;" edge="1" parent="1" source="OFJaODHsTfSckM5PXvSi-57" target="OFJaODHsTfSckM5PXvSi-6">
          <mxGeometry width="160" relative="1" as="geometry">
            <mxPoint x="-51.42" y="2394" as="sourcePoint" />
            <mxPoint x="-51.42" y="2324" as="targetPoint" />
            <Array as="points" />
          </mxGeometry>
        </mxCell>
        <mxCell id="OFJaODHsTfSckM5PXvSi-78" value="" style="endArrow=diamondThin;endFill=1;endSize=24;html=1;rounded=0;exitX=0;exitY=0.5;exitDx=0;exitDy=0;entryX=1;entryY=0.5;entryDx=0;entryDy=0;" edge="1" parent="1" source="OFJaODHsTfSckM5PXvSi-56" target="OFJaODHsTfSckM5PXvSi-3">
          <mxGeometry width="160" relative="1" as="geometry">
            <mxPoint x="502.19" y="2271" as="sourcePoint" />
            <mxPoint x="510.19" y="2212" as="targetPoint" />
          </mxGeometry>
        </mxCell>
        <mxCell id="OFJaODHsTfSckM5PXvSi-79" value="&amp;lt;&amp;lt;Value Object&amp;gt;&amp;gt;&lt;br&gt;VerifyExamSpecificationService" style="rounded=0;whiteSpace=wrap;html=1;" vertex="1" parent="1">
          <mxGeometry x="516.3900000000001" y="2244" width="170.8" height="53" as="geometry" />
        </mxCell>
        <mxCell id="OFJaODHsTfSckM5PXvSi-80" value="" style="endArrow=classic;html=1;rounded=0;entryX=1;entryY=1;entryDx=0;entryDy=0;exitX=0;exitY=0;exitDx=0;exitDy=0;" edge="1" parent="1" source="OFJaODHsTfSckM5PXvSi-79" target="OFJaODHsTfSckM5PXvSi-3">
          <mxGeometry width="50" height="50" relative="1" as="geometry">
            <mxPoint x="267.19" y="2220" as="sourcePoint" />
            <mxPoint x="317.19" y="2170" as="targetPoint" />
          </mxGeometry>
        </mxCell>
        <mxCell id="OFJaODHsTfSckM5PXvSi-81" value="" style="shape=stencil(pZ3b0hw3coSfhrcTOAN1vfa+hyJErRS7FhWU1oe3N2B5Zn5mznxthu8kEsXpRgOFqqysxKf6l99//uG3z59K+v2Pr1/+/vk/fvnxj58/1X/5VMovv/78+esvf+z/+lT/9VP9y09fvn7+29cv//z1xz///7cfzsjzX//25d/Pv/Cff9qNfEv5WJX0X3/+Sbm19j9/8Nc/x//jl18/jk+3kmR8hfE9bqPr+Izj05LxZcL4dWtDx9O/P2+ryPg8cHzW588Jxo9bi+8Z32/TxtN89lua3/O+7Varzn+B8fXWm64Hmp9ym7oe/veDvx6fff7XgvHpFt+Or/cP8m58qjK+wfu2uOUl40fA+HWrIeMDnr/N2/h2fbZb4fGyH9utw/y3cd+uz/EL5qd1nc9+yxXHtyrjcT7bLYaMn/TvN92/45Zg/bc93V3GV5qfqs8/bgP8SXssx/v4/UFg/7aHO3uOr/S++Ta7jB+0HrKuz3VLNP/pNqqMr/Tvp/vnf46fMP81dD0/HPa78aXJ+Ab+qq7bmjIen2epv8rbA8CC2AalqwHNUJ33B/hgELCEtoEsiZzvD/naYNzWt3Oa+VDaBi2rwYJVWrvumsxucRvIMZYbT+s+l7oa0MKu+69lWvutgOfdBmWqQdAjVXV1eaBv3wayd/K8NZrWel85D4OF3msb5KEGg96h2DsExk/bYCw1CHrpomuppNviX8hikHmL5vuJ9DDYq5UNpsQIOyqh75DvZ+TDoN13+TuDJlFL5+Wd1Y2Vx0H6ziBJXDd4WpNu0X0yTHrpx2d6GCwMFbbBkNAx7sHMOwOZ1v0nFJzuv5Zg5DwkGxT5hcy+Nem0nh0C5+1+RTnP9x5c8OG2gfil7XgmrKUzid+upfqI6d8Z6DvsGIZ+Ydk7jFvA0tgG+g7bkcG0PoOEh8HC/bANclGDQd9h510SlwcmLtugdzXAaZ26RXdsU+ml9ySaAR0oJ3SU2Hw7Hv4FObJ2uJjhUDxOJasBvnS/9W+n9RnwvjOQD7cjcArgticdoQa4H5p9h46QwnbuU2ZpYE6yDUqoAe7poq5yp1l0oJwkWaZ1oefbR6Bs0W2As5Q1L9mZKCUO+1SOUINFqzVpZLxzY3QzSaGXbUCLb0cWsh92dp/ZQMKfbdDhkU50FGpAcME2KPJI5Q5YvTaY9/T0g0Gjd5i6+A4EQu8wdGn0iinlNmhTDchVboNkBpRk7cB52CMN2EAnNLdfoIM9N435esPIeBtI6NA5hDv5SFED/HBVo5ltMOmlq7rK3vB8yIaF9T1v9AvljgV9MGi0vLOeDwc/pFnKeor2gfjBNhB8tw8EYHcyLLHGNiDEZxsIovrEWF8ahO3QiZMU6rv3eHJjSw+HvvB5lp5vnePuaYjbwueZ5rcDt44h1J1TxGHzGbcO8zkUztjjF3xgQxhHumeMb8ZLCDMYkOn6vns8Qc5NEfaRMHVzRDLjEdL0UNvjaX1WPTVHufvvN+PFu+/xkyLn+9d8jK+IYjwKFI/xDWMdy873+MDxVZ6/Y+CSNQwZA8/8pD5xTDyb0h0qe4zf+xGeJyn+NwIPSxs/E6bZPj5jkvBqPOXMyRDngsBCus/GYzxjhYZDzIbhSron7I/xHTOQrMfwHLhfDNuZ8+Lfl8x0Lk7SFP/a4ydlgQqwzcCSabHvFQw16f5dCZP9/TW//fdXxpCgqv9cDGc3/V6rcAlFM6E9HktMCpStegdU3pwXMv97PJWAulYgVsP18ChAfRhPMPPQ83F1LAlOxcj2+AH7a2pwv8a9JvomnpHza4/v8O9bTrYmrp/QgsseT/9+6H7c4wnB3gGlfuCFNetTv1lqsOgX9oKXTxYcFGdN1rcBIUU7ExCntQ2oopPNSyzG+Xc2I8s0EjIBtoGcq9tg0CO1e9jzwQCT9a4nfWSOPB615w8GlR5pZ0f2C4RF7VQ6mwFttlNSskfCDzf1+IjCGdnUeHEbYGZsG3obdPqFpRFdFKxV5FAMJNgFbwOt6l7EpEkPhWBeRrHyyTbAwkDWMD8apn3bQODibYDnuO3pbUDf4cCUUw3wpet9B38wQEzQoNboeDY/62gfDDIFO0390jbAWep6vG0DnCXf053zIUtggxOQU6mTdxh3Vs5rg6kn0DagAv7BBJYakCM7pb2qBgTxFePRBZ/qJcyRDXT31XCcuCivJw0ctgGyFrItjcEVfyOXxUT2XfUtOrlw/IBuPxggkcI4BdsAp7UpJhgMX20DiTViIiWtdgWAYuGero+V88GAahWHAdPVAAv461bskZA9Erb4FoJSLdmxuzBrblbAD2Y6tfLCgPKGVu2RAhdfs8wqAr1Gs2JfcJGpjRfvQN770BWbGYCb2QbCDzwvTbO07mDORwP6hTA3E0ypTfe1+fFLM4dVKv5nLdEv+NJgCHgbLDMgr9Grlh5iIejUm6Y0wah375Y/TCQhnLpBVgMKpftUCllM5opPi5cmntN9KRl9HygEhfWw82HgtA53MwMj45EUXYlHfPPawArH24Dgnie6/DGEg1P0wMseVYLXGFUR3miIgI9mj9Sw4r8NBLPd0T2FDqNrse8kHPRI4+7nPhjQoTjm3al8TJpoWqdlKAWL32NZKF3upafXBmFBYsYcaCbL4zK6mWndItug0C9kc8bMCJvFvkO645XvDHRaE3rvWTWaWYH1o9m0peCgP/TSTYuua/FLdz1FD4JFJUKrmW0D2kBz6IdbE0HrbSBVyDUx4ZiGaxxYkMqiU4+sNbAeP5cujW1AhcJtoCgcF79nGHm+I1S8jL+4ONvdBssMqLi7svabrIZs22Vs221A58MyEsI2KDBLyyjGqyL0ePB5M6Azbv+1sM/3n3T+BcXUK57T+xUVtK9IXdoGEoYuZvGchWBlDSKpbQP9BW6lWl54KOgql+Ea59vDFt07WALdU8qhX5gaOjyX42uDZe0nGQnx20Ch+MwvvTSU3gaUPzyd+8PggS2+M1BXmTB5XWFOgCvE+0TLoQYUVW4DmaXt2qjGfU5lKzoSrnGQ+qkG+EiGt16UTeNR1f5gQDyMHR1JGDq5tyos0N0GtDQOyi3vwEdWVPXe24BChzCAdjKZPJr61tmRAHxA61AD/HDN+ADMmzvphRECKI97JjAPA+boH/w2qQGBCCcJk3dgDs0Tjn0YZHQCB10takDnw8k8jVaCLz002x0XO24qQ3JnFIUNihhw/9PBPuUdBi8+i/lGx/bNmBrCDSaXxNKUZqezhPMdZFIMMi8N61AczLc48JMR6Kh6HNZR0h/tFu8MlDw78ZzeBpIDHVoobaAwHmlnZ2yH4qHn8jsICteZphGhRZcnavZ/nVYm3sUrujq+9NKyTk+845a1PgRy9MPCn9OQzstbCnhtYoYSBlM0Lk0dVM/6PQimCIsqG1dewxgzrSKj5Thj+YV837RvzwdrBaJ2plOj/PbD1WBHZofi6bCiHdcUq6xcLYum3rt25GlF1WpZ5YL2gdDkpSs7sqpxay28lgzMqZkPFKPB1IsPV9TdPzsE3xkI3roNKFOMosu7cPFrG0gofZrlaC0VjWYOB5xjb0ktD0mbvnQ21ZbGi8+i+1Ix8QuroZSCIEIYDbQwDSZMOaRkXhpJpQ0OFZl/QbVVEhLPDkVL+va5p3FZM+pp/yYwx5of8rr/5rv0WI6sbUAx30nAxWDi0vAUP3O/xzLC07Mj6p2Bag90TC3X0NWamYLs2Exu6JcOpVNeuiKl6nBGzQBhiqZHVr6Ai8x754IVjlWUqJ05Ml7GpshMz1vZfoGlNZa5mczuflnXZOaIbBtoDYWfKKkvDoxapwXSXMKfYaUB9NxzaeizsLlnWj1+Ifg7LeWbSE6fQ13eI1x8N1460TkFnd3Y+1jc3ONNr4fS9IN1SLaHWfrpfZAMF/HMWS39xDqll7sGrudp0Qj3Vp+C3benZkfcYxrvkvGqaRWTjl7r1DR1PAVTw7LzjgfmWNbviJD48O48rlwPhZ87UhSGSwbg+T0e3MfneKzVd33fhkflMPSvYXfnHl/1+QmDHXaMNXToo5rgARLrh5GsLqgJxeQOuJmymBYBQjUj30kzj4SFv5dJ21zwGLIS4yqWPEdS/8nd7AfrUr0/CoROr6jqG1Kk1U3rhBPA00ur44nh1q17JWMQ1E1KhTVCzvgi42m/vPr3qfLvz8/xjM9PwvXp858Qajm9yUnHM6Mq6/wg1y4U1Uj8vaw1ISEu00NJBQnjpVfjKa5/9mI/1xvV+7vp5THBphsRNnPztMWTXD7d60EFyK7GL31fOn+79Z5cvK9R+DKvzxf7Eb/X0jws4flyxk8ZTwBuN1LXxXpeWpi92C9L4/nL/Zi+d79/z/iRfL8T43KYnARjMMNgoYxlhnOeSo56RbeU/IURzGF6oIXjq2JSXXxeVy3qVY5Xq57XlfWdHRRG5s1o2pJXMf4fpsZQsWgzDEhhrtGJhzWeJPGJYYVeJj8Nr0VgvHHyBY2HCSIc1gnRWJxjaTx50Xwcmm82zmeNItou80HLdyifzeo/WTLH+aGc3+38WoiPnD/u8UPz2QtyqOWzhIZO45Fd5Ndd8ZCL/N3VVzB/mSY2NbBoNJ1UwPn+1PxlYs31aC8I8eKK4zkUj6J4e5reN5fhDm9KaK3oPw8jVMcjwp+UTBkYny/L74Kx8Wzdw0hFXtYtkBPj0EUBzW1wwdXUX+AQbplgTs64h49eg+R4rECx7FDaBrQLVjeku/JnG8ohzxXjoDW0GJUbtusv06XL7KmXdc/kjqHuWgr9Prvl3xmEGWBdJrRvMHMH0DJtsMzNkmFwfV5MVrAaX154IDxFEh4GLN8VpkZxioLwpU/pVKq53CIRhumeJIupl3pJA6M2h6u51ABZV0WLgieuuyB3umIzG8jBdpBymtZi5d8LnZKi0OhTSuWdgey4wk2rYd3GJa4oHdKUdBSW6cNVEy/O/KWr5k81M5Wg6iwdxWbmsUgEcITcaVqbPVJnPlHTsuMR1KdHsiCsTuamdc3aK5ftDt9Uwv7EVLOhR1bjxPeQO+UXCp7Th9dl0sIXxEhZra2xM1720h2DkzDwpw2m/C0js03siAuDG9u6MhA1rRZYsAmjdHRWyYnQL/28Q+edgaSE/YLsHEZbrJh05pT0U/eGYfGLn+jMBDOqTL9gzofJeLKUQ9hNJn0x9zJMlzdQ+DOsk2SwoPJTkuBhULCH7vBHpbpbmcK3dLkOrreFCSof9cbv8gKDxerDbuQ6+o0XjkkEN1lrO6xmOy6O0amg1rw4RqdWVWfGHXQorS7KSJt6WJ57QY8emg/Miy3a1W3MzvTorufuZGG6ML2vecE6byZ1eXFQm5bg5AZ/DzYmd61G1XravOiRqEaYmezvrVtyXvilohDFZMwhrONzBtPUs30HRhGeKmsPFCRxaGww/oWI5c6ahJdzWmtpA5mi2BNKeZsqWuMgdhqGSfLxxTjLOhhW5kbaUKLjYkWAZQHT4ehxyi7lx2e371sUwdtcGXZwOU6Ef+yajm1AkcBhd5pAKIXGq2s+sCqzCk2HcHHD2mr2Du0KkZJY4wlqvTMQXHY17oCuilOshnIUy8j8i/sAVzHh2Iaebxtor3vnduNsUrDM3lpZJSoXC+4vo7etzns6KYR1ob46DcI6fd3MIFW/NPCRpsV8a6Ig0rSI7EKxdVpu+QQX31UdpOqzFktqDBOpveC19he/gETVrl0Yi9W4ZjMZBNZ4nSYUv1jYeVaT5EtczKmmoJSwGjituSUy9pTO/EpQlet7Kn3FrVgzmc7UtepNqMFFyVQyxeDGwW2gqjcVwZlh6UBU3EDDLnQMPlB2EqaygtcKSq7RRMSKZoWmC6ao6YpHZypkMVGnSyUrlVziXNTJHkeXkwxMnuXIbNI7JNML5ttPuoEIMZkQ5uK8kxlGU6OZZ8L8zkA1yyaC9weJkVlafEm3SbAHX5nSm7ImYjFtq2qGcqXhZ80tB63hi65dSxGZcNnEeYM1/Ey0IwJxuxYm+sei4UdL0cQXKSJrUwGpg8t9rx4k3o9tipMfwMXXFq9ELSlrau2FziZKf9qNCsGYbismtht8C3c2AbxACKvZ3WxPHPmlQTWe7bPB/rWBNUIEdzT7NcfBjbHVqCZnj5KMbDfxuIXLtVqaFQtTlCO2a7qzeIdqfeGY8Ipgl6dbrDBcXmjnooZxNk1vdt/VrvgKvjCnJpPNnFdKz36iUEhWQptKDwRLyudGYz6nIhksu5xgsuK2XdsV3GR9iEomkEr4abESXgx0rqeAbfKldCqeXiyLfygUOM1MFs7gd2h2HfxAmsqhY041QNn9agSpju7+EGKLGlCV/cnQ/WBAvrUYx/cErnx1gArKd3QChzRvBhQlFtPvCm7YL+nF1QHk+XJoHf8ITvCdD4IXReOLLpYiUsFc4udl6x/TLHqHafkAl8vyMG31iqs1u1R6wfgnmzJVsExgNmDjSVx5ZyBo/8mP6XYPu2ApCmYcT2baBwO87NOj9YxlmlztyMr84YrRHvnSv1wsp2ERv+x7OmEkkLOSSJ5ktNcGyQQhgx/J1UhZW90q4Gux8IhGreuCDGto62L9Va35H9yR0CiD4efFTV2uB4v4geJvi4UobC8f3Qi8yVJ1gjs3L9r881XcTTfB4ubUZsgy39JjtdDFrD8rhS6+a9lvtsvoTIu6lYuKXTEB1YRUBWM5rosrtBSkm5zQZ9MmYIW/rKTiA/XjTZAqm8gwvVFZD9CPN1Pq8/NNjdYbNvmC5WTvy8xAYynNih7Xxxc8ZZLiwof1ge8rNbqZLm4elfcdXDAwkGDwHScmK3s06vF99SbXgZG15Y2j4wGWjAnUMfXNxq9qCPplIz9dxIsv2FUEHxfT/igIoZh42eDL5qqtB+ZxW4l3JAwV7ca/wc3Thp6MxFfkaJbfA5svLRDtgZGrSW4/u6nfjBfizLN79s35rhfCcy/AUK2KzmKNQzHpPR6rca9uOsebRAVP2+PpqrVlN38zOcrg5c43goXmDZ1L36GlkD4wnslJwYbOBaOcdMc/Sxfvgnpx6duAUKKTBcgc8Zl3NLeqGmCuZIWKC25utg6uzhfe5vKCL0z4+E7fpMx8tF3ppaup+FSUAcnNlmrld2g2rRy75q4dK70wOtFNKYjr0rmbuyu4HbLdWdML1qWzaU4fBVz6cPOFAi6+9NRifM98xC6lLByNXZoluwmxsyJLtltAekKvncNW60WYH6qZcnoAKO8w8K09ru55Z6AqTMHYsmH8bWFoenKVpgZ456Xdadb4gphibqZxN2AxqYPGdOGnNNLDgJvDS9UDtzVcGsWuDWmVIfumKfI2oJCkGA2psdcodhVQ40uf/H7zlpFVdMoOspaYVVQMBG0cF5ahjJzKXc1lWo/Ywsz9hEpTDbBOYarWdWKuVqYKXdWLetHSc7oOZJ0Wu/+ocnp9Ws/F4KKKYPzi2jABK6a2VJmbW0zl/VzByo8kMWvlHLuY4FhlUd5qWX9hUd5qsEW5qGMnrduVhT3120Cg4sKcn20gO64MRL6qyewcP8KPJI7soIuEDSb1rQcupEfKpmrNitDbQOCLwtcZ1Wx6zXzdXTW6cGF92ppNSICpJtXlFlj/oZr+yY5vSCBjGwhj4aJFvhZT8GJJ1WoNK3kw1cQ0iY5eMy2NatPa8IxzXkfmlGYbSFUtMzRUjYV0siIiUXTTzS58ibJVE04qSEvDjt1tQJzQavWQnDAM3Seakij4pumlERxT5qqdcIHV1mpiiAtpV9Wp89jysMfrZWPM3QmdUMZTm7ltrnc1c5ETg8lmwg+D6X7FAGHEh5oDmChm10xtgJkZrWpzUefnaS4ORdFIMzGmxt/LAMaGMEYzcWq+A6fZjX6N59NaoxiHaZadc59Tswb9ikHzTkqzjqfAqFlXeMEY+3TKi4AGi6Vat0LBuKubBAjXG7tdJcvoSDeUKiPRqHc7AnD99+5iuEhRHurPL8RDpyanF+Ke1hyYsZ7cjTBwIf4bmgZmTBt72CmP591ISiXLLIZoBVm+zHIYDTizWPYLsUuKCFwM+lLsMuv803k6DGViLZiRVUygsHjoi/EX4tryPLzfh11iWZDSdsZL1oT1sTPexLL5eST/5uR42HXc/9/x+z9+++GPn//8n59++cc/fv/j65e/f/749z99+fr5b1+//PPXHx9/9PvPP/z2ef/ffwM=);lineShape=1;" vertex="1" parent="1">
          <mxGeometry x="181.11898864825565" y="2097.237917874408" width="535.4428472697124" height="266.0979207470877" as="geometry" />
        </mxCell>
        <mxCell id="OFJaODHsTfSckM5PXvSi-84" value="" style="shape=stencil(lZ3Z0htHcoWfhreI2pfrsf0eihA1VIwsKiiN7Xn7qTIDwI9zGl9Jd1wyG9215J4nP+W//f7lh98+f0rh9z++ff3H5//9+cc/vnzK//EppZ9//fL5289/rD99yv/5Kf/tp6/fPv/929d//vrj97//9sOm3H/676//s5/wf9/5Yr/NtLlS+Nf3fwm32v7/H/7rO/0vP//6Sh+b0hegb/fH/cnnN39+i0Bfb60r/UD6pN876Pnl1rPQT3r/ckuv9PEWK9DnWy9Cn+n5+ZaG0LcA9Ok2ktAPWp90K/GFPt0SPz8Eoa/0vfG+nU96fJ94S6/nYS1AB/q1PUHoO73/Oo6v71Nukd4n3GISenr+1ONT79/zhjwXIR+wmuM26wt5uxV4+XGrr2en49kc951/ko/8nnz97+u7r5+Dlen3V72Tz1uEjX286pN8gNxp91d9HPvHRr+hr3JN4l0QvaFPRek7vH69TaFfFw1WZ4k1oc+3AItf9eAs+gZ7W2/hdTm34IKjs055U/oJ61luRd6notwveq3iY4Uv6fNtBKUnuZxtfzvqiWz7O255vqdPt/mqhuI6zrBf6daT0pMcXKfl9flbz+Hz0+v+br0C5zPpedj/At+7tEhT+k5yU9X0WuGCz6+iVgrrobvW/EA/kV72d92Iiu8fX+XJlgCkp2+hKP2E+xhUki+BR/d3WS2ynuOuuN/Ry3pOlG9BzZJFT+u5TuN8oc/h8P7tdT1zvBU4z0t6y/PXCcfvra/vn/PdUHlDX6bSdzifi/51v3JB+bboX+97XhIbvzfL+yzDGORh0POfT+cty/p3vL+LXt5/3Fr6K/QTTRN7/7L+hffr9TyXeFgf2a9FP3F/Rf6UhPbGon+9jyWjfgmq30tB+ySovigV5bnd99Lujsk7+ldrrPTDeoq+KwPtkyUPh9LT+Yz32/2gn2gJRzOcw0EfyX2vy34jP/B+2h/0CfVvvP/6g/5hgbyhFze8lpO+fr0vtaJ+TGrLL/qJ9oauZ7t1WP9ln8j79LvF8oZeXJE6UB+lu5f1gX7g947X81Mn6sdlv73KwxbwPD+s8Q/0De3P+Pr+LaK9ne/O0Ad60r9Zww5trTC+f3o9/y2j35v1PCx6uo+L/nV/W7lr8Df0oh8b68es5621u4R5Z/9npef3b7JfHfVdVvu2sT2W77fpQb/sMVwfca4XPcnPrP5mDyjfitr/Pd49uHf+mtAn9HeKhnE669Oi9k9n+VnUv+sF5UlR/bvo+X1kv3pFe6aofd75fJa7NP5AT3GlevfOHvQd70u93+4P9CRP6j3K9qAf9xv3Lv5g9GRfVY3+9In+YFX7f9Hz8/ur/B/h8P4avAroj1e1f0a8S9Q38SLxHxc97W9T+TwS2mNN7dtFT/K2qT2z6EmeNLUnx5LwGE/T9WF7+GFtPujL3YN+Qy/+xaLP+HzxN0dF/d7v0aQP9LRfQ+/LaKjfh57nRT/gfI57tO1B3zF+ODXNsejp+VP9nTFwf6fGAxd9h/WcKt/GvAWyh4Mt6LxlcgAsojAmvlFcLsnrL8yAKmMxiM+8GOjM7VxHUYZGybKoq7QYJq1SsleKGEWPZkcvBrJTYlbBtRgwwZbVsl8Mk16pqCszE7qqi0F/IbFvtZRfVAZyHqJF32e+20fXDE3dq5lRHSyGPpUBv6FrwGNmdMji0AjkYiCPbzE0WdaCIbZoyarFgD7WcqmiMlRyEi3qsRg6XKDt1hsDXaCU7HjXu6f2jmFUZUjkGGeNRE6O3KSioY/FgK70sjWnMlAschtT9tF0p1NT7bwYKLqyGLoxkLm59bl8dLsflncMug+NN26oR7EZKKMzNCSwGEglLh0nPulioJj2VorGgE57uPgFikJlSytsBnIzH1H4DwykRXPUfPtmIEc8aWRgMQy4ojmpaT4b5qFzvkeOPzJQbCabMG4cbClahDEb6rjFIOHA2e9a75qh2i9wrn4xSMBrMWACtd3NqQ8MmRkkRLkY6HjnrjblYsDjPdSpnYegy9Cs02KgKEeedjQ6WgKLwT96wAUqlniaAwXZM2/xgYE8vcUgJSVzYElMsVjuYiC7tVgwdDGQBiqWXV8MVBVWillkA8uYSjGFMu4Rt2uGasebHZRiHv1moFVqZoYOFGSlm5E4UMwUq6jZDPRKw/TDvDs51wxTw9KLgcTMYlCL7OFpXsdJgh2+iae1usqad1//miFq6m0zUKgnaSxsM1CsJ5n0nlgMUrPZGkcGdfwmlwcVM+EODNW8rCODHu/DNzRN8Z0Zqu807UM3/2GiKb1zUPbReDS6hlkmRx3quDjepEUXg9oaB4aplTxnBnXxJ4aGW9CS2zND81UiBg+1HBnqX/0FNaUPDOnqioKYaZZRPDFkDcFtBgqZZo3JnhiKJiHnxKKJVrS498zgpxXD3FXzlmcGFwIUOF0MapEdGJrZfEeG5t8AYqb1i304MGgw58jQ7XhT+VkbZmAdGVxUHhj8PlAgpM0LMXNgKH74mEHtJWbo4cISIKdpMbjaPTAMP0sgNboVvmyLjBIb0RyOif5Dj1rqs41EuKI9aa3kZqBlTRf6gXygxTBlp7k6qGe7QOO+0O8Yhrk0ZKx3d/HZHehXHkqnX6gX7gCVTC6GZi4NhU97u/CyKMm6GNx5LfQNzYz1gcbJzlKbl4VXtJvtzYVCfZgGGny8h/kPg1OP1nUxO9aedw+Udz6t1jUyHwrgkmEE647oWI40grZl7dgMvNJiUA+lY0J9eCSR40vD5VLHAO1IdpY6btxi0EA5FwGNrFn1HT4lhqLdUDsEDBdoeC6rcU+OFXLMQ4tQ1cz9zg5QJttKCXZKhJa1m5gpfFq7HW8udty5aGHIGG8dHrvPfLwt/z0zJlJnsPRawgag6aZDQvd4eiCEE6nrvzXkFTEPtP67GwPt9Hpj3emA6YRpZaGLgcyfaaGWncWnOgQrrBzcR7YYxAcaHHqcWf3pwaXO04I5gwPl03pGdzEIfXTR6qnBUmMW+wbOKT7Tpg+Gwse7/sUCnp0FlQoS7uycFpAaCTXQNMk3IvYSP1OOD4bAzZ1NjfWtuek+ND18y5igXNbWN8LATZizqVvWD2epq8padibudFcDa5u+/Ati/ixrnIyTbVlIsR8X229jR34hYvXbM+vzYOC29G3hWf0t5bK2DSkF0AMbPKZ127aOFabTlGJ7aO53DKLYW0XjZJpl3AqrLMvHtYzx1qdP9WBIGLZ7unkPhsh1at4iHTD68/Rt7wyVAyHPjMmDYWBM4BlYeTB0VopTFXttJwaxvQ/dIYtBEniV2y03g/W3ULHQYpArWhM6fptBfuGw0xb3roFLJI2hTLSM59Si4nIwHfwXOhZtXTC0uyX75xniYR9er+jOlPI3KEM5rZIyZNYPU+OthWuR/SwtBvIUN4N1C1J3wz7e0i7IsCLT/Ic8MVW7r2hRBgqUP3NjD4aBHcvP5MGDoWNJ+7RMU+4YanlGJh8MBw00tcs/V64anpq1XAxoVQ6NJOZy1A+ySplNh6GAKjndbYO3Os4YDq8kNl/m3sQ5NFu2GFAIDDVDczhZM+l1WZ+1a+8YxEhMk2/c0J1+1t+9tciqMqC4t2qKxC0wO+aWlAHtpa5F/YnLwrahW5WBqoCntT0sBirw2Mb66xXdyCL8C5LLSpX96aaFmKnwnbb02q54JanR1B3Y3XN0+Kx5JmW2+ax0YZf50jdU++iEpQu7wFbwFyJLDXOPNyQGbVxV2XpAnppWNrybwOkXrGcuMabOLKqyFgNalY4Cw6goM6s7sBgozrcYRLZGzoBPa3xdDIfoj1ygeOiMcSiYwVrUShfi4Ctq4C7xIPmi2t6xswMe9cYtBrwPQQ9fZLyBxSAAOBvwhw5fsI9uWDE4ppZfLAZSWePRsfuBgRy/3SJVlIESqcPUbqzcJWZxjWcryzuGbAzUwzGsETBWzE8PK7+IBS3j8Qg/fWAgp2kxKFZTQWtmFPXjFgMJgVFUi+6mJTpLWVO1kdvlh7VZxYx6ehiAQsxo/gwD6tutXfRK1ksTE9643TFrGGfkNC0G3TiO6PZp0ptbxfrQUPzGK2QGFfcRN653E5URg5uLISRloDhfbxrniwwdsesEojJQs0E3SyAGzk9b939k97hbQWwMDA6YTBgHdI+7AZJtpEb6BUOkmWiQdUM0mtg5sOPDkvrCc9G8MBRXaNFrqpkLHr36HK//DiZL9gR9mV3IJw27mEZoJoQH2rcbb0TpsWTOkv0DAcB2BakgPGCr4a5pVXRMyqg1s0c6Gm11as1sw8aTjZ+ThB4BIC2N007V2hK15pRjtQaMyu9fDEGI39/6jDmZsYv4DYmV6t+tsa3g+a+G+Few/KsGLQ9mALBiMf2CArFYLqagPCwmTzIDfFpWj/uRi7WEZrRMS1PrOvP6GOJHRkO2GMJJRvlZiioYjiks+qLPJ+egFC1k4IRKMQQhBnAqhsiUuc0s+3lAgB8r+jzS2/5GuC+77U3Xn2KcxVzSzOffEPMylg0WRzhkAKqpFahH+qznh1yOPBz4Gp9vBd9H+qD3l9YnG+LKkT7ZetL3GsJzxsxAtrK2jDXJ2WOC3OJr8ofTAtn0Y+Ke46p+Q+Km5qLyP3GbddHzlrBuJBti2IE+WzT9RG/rc+grn7pfZL9lc6ATd8YnLXBKqL9y1MxswnTdopciMAY1yUHlIfvOOVhQnME6TF4lLOVIJq84y+XY9Qnt+TS0Np1d/zR8v8jeTtZikxhPoqtLmxDQKFliJWJ+KzU9PxyISFZaFk8QHRpxwlq3bY4rPWK3WHtDxN6DjWKSlJ6gXor6pwd6q8qMGGXf5mZVejr/2XIXjNqSVD4f6cX/OtBHm4CAYaYU/fwgvTUEHOl9PZne15Pgi6zshM9btCqsA/24WE+m9/NJ9N0mCJzofT2ZPtr7ENpZ9f3FwSjVgohoz2963V+yx6KlBRigcdNXoSd/fNP/pUFFVl0cMP6w6fX9Keew11/fH1HRmtpjgdG7DNPp+HyxzwPq92hJ+MP6WJg7oH7Z9Pr+CPfX1F87nJ+m8YHIgIUWrzicf2vOO9wvK06PWPMWrU+aezuiIaBGhryrWrob0J65vI+0vxf0h0Fg3c7b4f7q+aH2NF/PgFUrvl/n+2j0f+n8HOgNYTWwPjX9whkb118HetOPR/ph8oHRCZPJc6Zven6I3u2TI72vJ9NPvV9Ib/bbkd7XE86P259Hel9Pojf7mUsS3T4/0vt6HvwLW0/yF4qWhAX09x1hO2B5SqrqDwZsNUrWmxQwfpWsyi5i/G37p6ofD/510OdTW0Wy2kgejLgBIVXfoX83rKaDz8PQfG7EAo1nuvQDPa3PdH+B7NU09bxFLIrMQcvBIyPfBdXvEQHyd/xK34dqCHK0sjeOfybNV3L8ZNE3XU8cEJdVXyfMF+/4pMa7cGDIRfwTESANFvlI7/EoijcWfx/Kp2SbGJiwOWDHt/V9yP7Z8XOL79Hzzf7heOOO/1t8kp+vJb480KPbRDmUP54fSei/e/7lSF/0/JB95fmjA/1FvPdAb/Fkovf82pFeJ9zh+nh+MPFAD8s/JsbEtIlLHJ/3/Onh+RfyCt/f+t4P65lVvyce4FlsQiLqx2cX2Qd6zqdruTrXG1TVd4eBM+ZvchPac57anZ7zlcXspYz+e+meryf5Vi7ys3h+htbD8MDYXX+i70/5iF3fIhP9cH12/YzWqyQCg4zakc1Fvw7iyVXFNat85rLlaue5or6rVe29ivqiNj3PPJCkWj69Yj76OX/tTt+4Psp6+bj3rwWbgIbxuha9Xo7sqxa1868z8GCyCVko33b9oUywwnx6s4nJA+2xZh1Cg+ElmzaQDjz/zeyTwQOITJ4MjJc264tkkLhdH6v1rnRfdv2tgNUgMmuPhlXDFccOZM913On+3096LBTPWr8XA6PoFQsoB8YaLAp6FDnkvgvFrWaadPYuRR/KgCPhuzoxMTK2mkFD7WJ3eiUb67DL6Wmfp+XhGSukW3v6HvVOuGRWaRG5NGBjqwVlwEYim14a2VjczR9dGaileCSbP5/QfR7ZTivXIw7zh08NLMW6RQ4tMjZ0IWY0AYeZjM/ZRO8YNGdSsIhlN0NZbxNuXFNQvMWAXWxWlrIYSG6Pbnnbiopqg7F1ZcCP9sw5mzpjKvZmrNh+uDHCijJg/26wYBJ34k2bP/7MD14zRGvzaeiPzqj6fM+IogbHaAFAHvk9Dcc1HnBnPITW+RtscERk3MqZLck6eB+s6j8y4OhFh/DgVtaiebJ4ACKwREFk1OHdR12VAZuWDYxtt0XTPlQVxofk/p4wZa3diGxTrbo04DzOPf9JwgORwRRspFqK3AtuBvGO8DGugAIRHLr+TRgfegY2mEJXBmyx7xpET9yZuhEkijIc0Ns0zMTSe3aLy1ZMTDyxbR8MDS2BaZ0nh9alDS4iZ6ljr8GGL2nKcPgFRV9g1OHngJwPDIiMadhq2/+hnbbxfGligfMc1tDAFQ7TOwjCCdlGUqo5MozM1Jr6ndU5AAYZA2WtppkOObPKMmy1zFMPHVttMRzQqgSsM3NP/saSkkheY0FmbdG5ownniFuLAXErzcDKBzTDqdU4md37adj9G0DrwCDxPHZeF4NooBIZzXBqBrdwymtODUE9J2ldMsQQVPQdsNKuOI5wbPpSR8A3ZThCyjnDAbRO5MYZFk8ZjsB7unVHaD9h2OCBh4+W9tbI0nUq0FhNp30Q+35DLPLxE393gzgeGCQEXU8MImgqT7m+wJXkqOwWlsLAYVBHuas8Huk5f+MRhz6oxanWxoYcJYvJEERbYmQyxyjNJ7A0EZatnLBipTmtMQj8tPnkrWF5jBtAjQcKTEPaaIc7PbSgqU3WowYp17nEanY1gDr3xMyuOcPOTWfb+pZfyNil8xyx+WAo7KN0NXU7T951H6UfwghN7fveGerS/KzOYwy3J/cqyDpjc8ymVt/g4u7Z9KMHV0PNqtmfHSFltHJx8kfmG1d1pwcnQPfc6VdBNiojk1U1HUZltesprAO+Z1Egyj0bgqR3UX93dL4PWee8jQPqoyExjcPhM8C3MbHwc1qj/Az80Z45ChySSppQmAd8T89lcbPe/m9jOMya0FG9BwDEoAmFefDkfKTNIaFgIL/PYOE7Bh3bljGGtY+azy0hhm5Tpwqnjhykp/IMHJ/YVPmjrU1rcl3AqKpQDmPQl9jS492wc2MPirAZOAg05uOGGUtnJJsO2U9gaRJWO0yiHj5/kgdLD79xnUfaGL7MDoPRLwQbJzkw3D+CjZ5j27tPGy10GBc2begmFy10g3N+giO/Y1AhMBiZzKzKw5zobnXmc+CdXgw6dPMwq65dTcOjUoR2MQEZUe6aydbDCEBrPpgT5VI3TMbD0M1uydrDbN9e1PHbviOtkmWCnt7pOwYfiYmVAtmu6OTDl2yi38R82R7FaKtEKBq7qiUZA/3C1TRt8h/2wEr76AOQnmqgiZLPh25+iIK949DejgOHjw79Exxag3Hm8AGoZG9cjlg9MPiJPTD4mFiyji8H0R4YfNTtgcGH6SLw4NW43gODDwQ+QBv6JSKBfDnU+MDgY5OR4WowM3ntl6OfDwwX+0CAiFfjqw8MyRl4ZvfFfQAJfjnkGxmuxogfGHxQOdmul6PQkeFq2PqB4ULMUCXy1cD4A4OPpEeGq6H3BwadmMpaqHaNrk8ukaj9QlQeGIL/AhWEtwshQHZfNcSxg66uNhFvcg3qYgj+0cRQLuZdI4N12T4Te+8Y/Ioig9Xxnxl8yDeFUGs05F42smrQUvJtxtFOO5bwxJqKcnVFqTq5GHrscwbSNcMwj3cy3qb7QROnXJauRUmTMzXlyq2hUpVSL6Q3lT3tTKh9NIJoWtPkc6TRO4ZoG0cF0CVbXGCgCVeSSb6BKqskc5x4FHoxJLvDZPPipfcDHacSTIsOBrOb5kMMLJHIVhfyrAm6ZhhmVfKQjWzZpskNH7lrlmMyQnVuFtXtqEWzQd5MHh6aDdNlcmJ+Magl0DEtkouNHO4Mi2gZgs1wwJnsykDJ1JztaHBwMCeL6nZuJU5aTXYYhZ6vRqEnavY18I/NQDsdzKXhEOpi8HHuiI84L36Bjney1P+z3vKawerVFgOd1mSV6zsyTZgPruMag4B0O0ucMUtNE/OTa712LaW9EuJgVlMoDYslN5CJrRIhsyVrVJoVNdATyfsDAxlYT+jaDwwIVpksPVUZ3SNqZ9MewEVwHUHLMQ+ZmmgVRrMyoNi0rF9Bd+BZ2P6BgYzE2M1YLygqo2G+7wQufUPTdq7FQEIgGirp5AKJWM1Yz3hFo+Eo74wvfUPRQN9kpOxoOeqd6qRXymZ787zraFjHz5lg7xg0TciljDFZhoDn1e2euK4MWMnoKosBTaMPbImMWGiIEPMAMRnseAeeBap1WzNwpbvmwAc7lvOiFAErVtXZGOw7WGPW4HTc0LzrGOjM2EjzwSPNu5o9gy0Ag6gbPICtK2TD4GR504rhUTgaqMbtoiet0zR+8xw09oZeLKTB7SQGUTEyuugGIToySmurJRiMEVJVGwzGHDLZPiLPhLH14ebhqhp2BMaE0Cj94LaqaqV1hzCPmgids6xmqXXubbOkQWcXtajj39n3KlbdyDOLTLN2bqo0iKvOM4KKWuOLnhRA0f3dSWZ8vuR7e+YZAuoS9YTyOavZ+8z/vqEXZ6Jz2ZcNQ+3czm+xqUWPmGSq4hvPOM8ar2jcZZI19dw63q9sECeNZ3SoF9F45pWNfm0V9bWZca2wP6px5pbx/ZPq08Yziyyw0dgOtVD8okdPUaOnjbEarFCy8YTipAHjxvOGk9as18mYnRo/qFyYk7S7eee18H3kfNaO1U4217eyvLVikMqdPVH1xR7qBusfdb8q9yZF6w5hDKqocbTK5fbRIJAiyjfLzdaA62l5n8JZ+6D568IYOcFGuA3MNhhIQenYdGdh99LwfFoMsDCQg0H27F41uF9B70vhmXJB/YuSDvslTu2iJ//FIKsKY67biMfCrUVBQxF5YrOq9f5lroYMmrLOHM4Pqr92ygHPm6Q8MsuTYO2/Fe0Bg9jOBSv2bH93MgDuu52fzDO7guYiMs8UMiCgzBjGFn/IPAMhGMTqRP0YFFI5TbT/g8rnHUHH/RX7f3vouP4KItEO79+NnnIQQVOjhxmhVmJ9mOEZDaKCGwgsyJwy+jtWi3nA4LQY3AGDOdrINJ4RkVSf7hPF9pWgf3HHntmHkTHnkhZKx4GpDUeb6Yzpa5DfjbObBtZUsaCt2IisyvUK6n9F1qdFA6A7NM3xDaMnfBODsNyoYhgv0pFmjFHtI094ZpEVdu4QMNLroHSe0dGszgfDe5YMHFx6rembwSX2jndJvrLlPhuawkNDmZw0tB7pirF8awvnzJa1znNnZDSoezYDFr2cy8xZLctEcCvb89Q+6TFbY7PsE0LnRusKiPy9LmdRjEfH9mO3MasfyNdwSbGo9KQmnhB4T3pMW1Z/Pp4f690NPDrJ2mkC75dVhnIYbY/u0ffHzHH3UUWYdO2asAycJzPApoDtRpteR83g+lgpFTfUxqH3kdNwm15H0+Aopwt6HH128T7UG3v1vXieL9bzMIrQ9ovM8qvzgCn1i/OGZuqRfv3htx/++PL9Lz/9/Msvv//x7es/Pn/8/5++fvv8929f//nrj49/+v3LD799Xn/7Nw==);lineShape=1;" vertex="1" parent="1">
          <mxGeometry x="19.990315693620687" y="1887.8712542225153" width="392.6759888434433" height="234.80672815482936" as="geometry" />
        </mxCell>
        <mxCell id="OFJaODHsTfSckM5PXvSi-86" value="1" style="text;html=1;strokeColor=none;fillColor=none;align=center;verticalAlign=middle;whiteSpace=wrap;rounded=0;fontSize=10;" vertex="1" parent="1">
          <mxGeometry x="120" y="2094" width="20" height="16" as="geometry" />
        </mxCell>
      </root>
    </mxGraphModel>
  </diagram>
</mxfile>
